{"asset":{"version":"2.0","generator":"Blockbench 5.1.4 glTF exporter"},"scenes":[{"nodes":[63],"name":"blockbench_export"}],"scene":0,"nodes":[{"rotation":[0,0.02181488503456112,0,0.9997620270799091],"translation":[0,0,0.01874999999999999],"name":"lwing2"},{"rotation":[-0.10863378779736224,0.06501435901611073,-0.007120229105254074,0.9919279891242159],"translation":[-0.5,0.0625,0.25],"name":"lwing","children":[0]},{"rotation":[0,-0.02181488503456112,0,0.9997620270799091],"translation":[0,0,0.01874999999999999],"name":"rwing2"},{"rotation":[-0.10863378779736224,-0.06501435901611073,0.007120229105254074,0.9919279891242159],"translation":[0.5,0.0625,0.25],"name":"rwing","children":[2]},{"translation":[0,-0.04062499999999991,0],"name":"wing","children":[1,3]},{"translation":[0,0.18437499999999996,0],"name":"Face"},{"translation":[-0.009090625,0.02850874999999986,-0.022204999999999996],"name":"HairTpl_front_h1"},{"translation":[0.260094375,-0.07257937500000011,-0.249601875],"name":"HairTpl_corner_h1"},{"translation":[0.045331875,0.16961625000000002,-0.18209875],"name":"HairTpl_hl_side"},{"rotation":[-0.043619387365336,0,0,0.9990482215818578],"translation":[-0.0307475,-0.4251125,-0.016408750000000027],"name":"bone4"},{"rotation":[-0.043619387365336,0,0,0.9990482215818578],"translation":[-0.0307475,-0.25161124999999984,0.29628062499999996],"name":"bone3","children":[9]},{"translation":[0.050733125000000004,0.08483124999999991,-0.187159375],"name":"HairTpl_hl_m","children":[10]},{"translation":[-0.029076249999999998,-0.20252062500000023,0.293155],"name":"HairTpl_long_h1","children":[8,11]},{"translation":[0.009090625,0.3036756250000001,0.03522375],"name":"Hair","children":[6,7,12]},{"rotation":[-0.2988362387301199,-0.6408563820557884,0.2988362387301199,0.6408563820557887],"translation":[-0.22578125,-0.21562500000000018,0.37265625],"name":"bowknot4"},{"rotation":[-0.2988362387301199,-0.6408563820557884,0.2988362387301199,0.6408563820557887],"translation":[0.27421875,-0.21562500000000018,0.37265625],"name":"bowknot3"},{"rotation":[0.46174861323503386,0,0,0.8870108331782217],"translation":[0,0.5562500000000001,0.5],"name":"hat","children":[14,15]},{"rotation":[0,0,-0.08715574274765817,0.9961946980917455],"translation":[-0.09375,0.4999999999999998,-0.125],"name":"LeftEar"},{"rotation":[0,0,-0.49999999999999994,0.8660254037844387],"translation":[0.09375,0.4999999999999998,-0.125],"name":"RightEar"},{"rotation":[0.07817411670430374,0.24624736458795257,-0.13540153502103058,0.9565131819399764],"translation":[-0.24375,0.51875,-0.31875],"name":"flower"},{"translation":[0,0.08750000000000013,0],"name":"Head","children":[5,13,16,17,18,19]},{"translation":[0,0.1875,0],"name":"Neck","children":[20]},{"translation":[0,-0.34375,0],"name":"RightHandLocator"},{"translation":[0.04531249999999999,-0.37187499999999996,0.0015625],"name":"RightForeArm","children":[22]},{"rotation":[0,0,0.15643446504023087,0.9876883405951378],"translation":[0.1125,0.07343750000000004,0],"name":"RightArm","children":[23]},{"translation":[0,-0.34375,0],"name":"LeftHandLocator"},{"translation":[-0.04531249999999999,-0.37187499999999996,0.0015625],"name":"LeftForeArm","children":[25]},{"rotation":[0,0,-0.15643446504023087,0.9876883405951378],"translation":[-0.1125,0.07343750000000004,0],"name":"LeftArm","children":[26]},{"translation":[0,0.125,0],"name":"UpChest","children":[21,24,27]},{"translation":[0,-0.3551175,-0.1636475],"name":"bowknnot"},{"translation":[0,0.45468750000000013,-0.0015625],"name":"clothes2"},{"translation":[0,0.1875,0],"name":"Chest","children":[28,29,30]},{"name":"UpBody","children":[4,31]},{"translation":[0,-0.03125,0],"name":"bowknot"},{"translation":[-0.0007812499999999972,-0.44999999999999996,-0.00859375],"name":"RightFoot","children":[33]},{"translation":[-0.012500000000000011,-0.528125,0],"name":"RightLowerLeg","children":[34]},{"translation":[0.1,-0.15625,0],"name":"RightLeg","children":[35]},{"translation":[0,-0.03125,-0.0171875],"name":"bowknot2"},{"translation":[0.0007812499999999972,-0.44999999999999996,0.00859375],"name":"LeftFoot","children":[37]},{"translation":[0.012500000000000011,-0.528125,0],"name":"LeftLowerLeg","children":[38]},{"translation":[-0.1,-0.15625,0],"name":"LeftLeg","children":[39]},{"rotation":[-0.10886687485196457,0,0,0.9940563382223196],"translation":[0.05,0.016890625000000048,0.10215249999999987],"name":"Tail21"},{"rotation":[-0.1521233861899167,0,0,0.9883615104677607],"translation":[0,0.0625,0.15625],"name":"Tail20","children":[41]},{"rotation":[-0.19509032201612825,0,0,0.9807852804032304],"translation":[0,0.006249999999999978,0.2500000000000002],"name":"Tail19","children":[42]},{"rotation":[-0.3214394653031616,0,0,0.9469301294951057],"translation":[0,-0.06875312499999997,0.3125],"name":"Tail18","children":[43]},{"rotation":[-0.42261826174069944,0,0,0.9063077870366499],"translation":[0,0.0018624999999999892,0.3728475],"name":"Tail17","children":[44]},{"rotation":[-0.1521233861899167,0,0,0.9883615104677607],"translation":[0,0.009194999999999953,0.2499618749999999],"name":"Tail16","children":[45]},{"rotation":[-0.1521233861899167,0,0,0.9883615104677607],"translation":[-0.05,-0.25526812500000007,0.22231875],"name":"Tail15","children":[46]},{"rotation":[0.10886687485196457,0,0,0.9940563382223196],"translation":[0,0.005448125000000026,0.24178187500000003],"name":"Tail14","children":[47]},{"rotation":[0.5372996083468239,0,0,0.8433914458128857],"translation":[0,-0.19374999999999987,0.4046875],"name":"Tail13","children":[48]},{"name":"Tail11","children":[49]},{"translation":[0,-0.75,0],"name":"lb"},{"translation":[0,-0.75,0],"name":"lf"},{"translation":[0,-0.75,0],"name":"rf"},{"translation":[0,-0.75,0],"name":"rb"},{"translation":[0,-0.6848050000000001,-0.162085],"name":"bone2"},{"translation":[0,-0.75,0],"name":"back"},{"translation":[0,-0.75,0],"name":"leftdown"},{"translation":[0,-0.75,0],"name":"rightdown"},{"translation":[0,0.6421875000000001,-0.0015625],"name":"down","children":[51,52,53,54,55,56,57,58]},{"name":"DownBody","children":[36,40,50,59]},{"translation":[0,1.3125,0],"name":"AllBody","children":[32,60]},{"name":"Root","children":[61]},{"translation":[0,-0.021875,0],"name":"Root","mesh":0,"children":[62],"skin":0}],"bufferViews":[{"buffer":0,"byteOffset":0,"byteLength":96768,"target":34962,"byteStride":12},{"buffer":0,"byteOffset":96768,"byteLength":96768,"target":34962,"byteStride":12},{"buffer":0,"byteOffset":193536,"byteLength":64512,"target":34962,"byteStride":8},{"buffer":0,"byteOffset":258048,"byteLength":64512,"target":34962,"byteStride":8},{"buffer":0,"byteOffset":322560,"byteLength":129024,"target":34962,"byteStride":16},{"buffer":0,"byteOffset":451584,"byteLength":24192,"target":34963},{"buffer":0,"byteOffset":475776,"byteLength":4032}],"buffers":[{"byteLength":479808,"uri":"data:application/octet-stream;base64,"}],"accessors":[{"bufferView":0,"componentType":5126,"count":8064,"max":[0.9779282808303833,3.0801990032196045,1.2872737646102905],"min":[-0.9779282808303833,0.02187499962747097,-0.38543903827667236],"type":"VEC3"},{"bufferView":1,"componentType":5126,"count":8064,"max":[1,1,1],"min":[-1,-1,-1],"type":"VEC3"},{"bufferView":2,"componentType":5126,"count":8064,"max":[0.90625,0.8984375],"min":[0,0],"type":"VEC2"},{"bufferView":3,"componentType":5123,"count":8064,"max":[0,62,0,0],"min":[0,2,0,0],"type":"VEC4"},{"bufferView":4,"componentType":5126,"count":8064,"max":[0,1,0,0],"min":[0,1,0,0],"type":"VEC4"},{"bufferView":5,"componentType":5123,"count":12096,"max":[8063],"min":[0],"type":"SCALAR"},{"bufferView":6,"componentType":5126,"count":63,"max":[1,0.8660253882408142,0.44990789890289307,0,0.30901700258255005,1,0.9961947202682495,0,0.9961947202682495,0.9762960076332092,1,0,2.031585931777954,1.2721236944198608,1.725253939628601,1],"min":[3.4166331242033285e-16,-0.30901700258255005,-1,0,-0.8660253882408142,-0.13052618503570557,-0.9762960076332092,0,-0.49224749207496643,-0.9961947202682495,-0.13052618503570557,0,-0.6771523952484131,-2.347259044647217,-0.8332951068878174,1],"type":"MAT4"}],"materials":[{"pbrMetallicRoughness":{"metallicFactor":0,"roughnessFactor":1,"baseColorTexture":{"index":0}},"alphaMode":"MASK","alphaCutoff":0.05,"doubleSided":true}],"textures":[{"sampler":0,"source":0}],"samplers":[{"magFilter":9728,"minFilter":9728,"wrapS":33071,"wrapT":33071}],"images":[{"mimeType":"image/png","uri":"data:image/png;base64,"}],"meshes":[{"primitives":[{"mode":4,"attributes":{"POSITION":0,"NORMAL":1,"TEXCOORD_0":2,"JOINTS_0":3,"WEIGHTS_0":4},"indices":5,"material":0}]}],"skins":[{"inverseBindMatrices":6,"joints":[62,61,32,4,1,0,3,2,31,28,21,20,5,13,6,7,12,8,11,10,9,16,14,15,17,18,19,24,23,22,27,26,25,29,30,60,36,35,34,33,40,39,38,37,50,49,48,47,46,45,44,43,42,41,59,51,52,53,54,55,56,57,58],"skeleton":62}]}